PathFileType	4	(X/Y/Z)	C:\Users\WrightLab\Desktop\Jo\P5V27.trc
DataRate	CameraRate	NumFrames	NumMarkers	Units	OrigDataRate	OrigDataStartFrame	OrigNumFrames
100.00	100.00	       13	19	mm	100.00	308	       819
Frame#	Time	Headset_Front			Headset_Back			Headset_Left			Headset_Right			Left_Shoulder			Right_Shoulder			Sternum			C7			Left Elbow			Right Elbow			Left Wrist			Right Wrist			Left ASIS			Right ASIS			S2			Left Knee			Right Knee			Left Ankle			Right Ankle			
		X1	Y1	Z1	X2	Y2	Z2	X3	Y3	Z3	X4	Y4	Z4	X5	Y5	Z5	X6	Y6	Z6	X7	Y7	Z7	X8	Y8	Z8	X9	Y9	Z9	X10	Y10	Z10	X11	Y11	Z11	X12	Y12	Z12	X13	Y13	Z13	X14	Y14	Z14	X15	Y15	Z15	X16	Y16	Z16	X17	Y17	Z17	X18	Y18	Z18	X19	Y19	Z19	

308	3.070	67.96812	1412.41956	-109.29668				126.91315	1561.83582	-249.61635	-40.69405	1518.65540	-92.93575	85.55495	1492.10706	-459.05032	-149.10835	1447.81030	-163.69040	-25.00234	1287.85510	-286.42810	-148.87279	1534.04004	-376.58578	110.06516	1205.38171	-555.59204	-101.58691	1196.55261	-42.10366	132.99767	975.31030	-465.37469	96.15144	1054.75598	41.95081	17.90714	913.46240	-379.01947	-219.54057	945.30591	-226.43527	-194.59804	1007.36676	-533.92511	16.58888	490.24411	-374.70084	-336.98959	513.68408	-235.82074	-40.29856	83.39682	-382.96927	-383.44125	106.50787	-271.21027	
309	3.080	68.19045	1411.24548	-107.75550				126.56954	1561.22107	-247.40717	-40.49453	1518.70581	-90.47100	84.13071	1492.03967	-457.43884	-147.02499	1447.04700	-159.71213	-25.65722	1287.85376	-283.98795	-149.46848	1533.98853	-374.31799	108.86153	1205.12671	-553.91711	-101.46437	1196.28125	-39.27486	131.73164	975.24109	-463.84805	96.67234	1054.56104	44.45185	15.52537	911.55231	-378.88297	-220.31685	945.06512	-223.47865	-195.89587	1007.45172	-531.61493	17.00293	490.19312	-375.76294	-338.12717	513.27173	-235.68118	-40.41748	83.38440	-382.94403	-383.37082	107.02542	-266.73489	
310	3.090	68.72507	1411.13013	-106.03352				126.87642	1561.14209	-245.78551	-39.57970	1518.68738	-88.34377	82.93616	1492.36609	-456.30719	-149.86555	1444.73486	-161.54707	-25.87088	1287.65027	-282.37573	-150.22125	1534.10071	-371.45752	106.41230	1206.06299	-551.57465	-100.68053	1195.82483	-36.70323	131.60397	976.22052	-462.21448	97.23679	1054.44604	46.27532	14.67629	911.36298	-378.01547	-220.03246	944.68457	-221.78516	-197.43793	1008.01221	-529.01819	17.23430	490.12515	-376.18539	-338.06528	512.19342	-235.10373	-41.37457	83.77362	-383.44614	-383.02032	106.20982	-261.83453	
311	3.100	69.29613	1410.93835	-104.99506				126.81824	1560.63306	-244.69380	-38.87025	1518.04321	-85.80993	82.07956	1492.71228	-454.45093	-151.16692	1443.63928	-160.94975	-26.21376	1287.27637	-280.80963	-150.93889	1534.32581	-368.56833	105.39361	1206.06177	-550.87402	-100.46402	1195.28821	-34.23283	130.67941	976.25067	-461.06805	97.98013	1054.13623	49.11412	16.51587	913.54974	-376.05679	-220.11960	944.65564	-219.96429	-198.69626	1008.67310	-526.99707	18.12155	489.99939	-376.99707	-339.01907	512.13989	-234.31694	-41.38452	83.82380	-383.47702	-381.97067	105.53428	-257.17947	
312	3.110	69.62171	1410.79639	-103.17947				127.02351	1560.55188	-242.27342	-38.03033	1518.06702	-83.84215	80.92375	1493.12231	-453.77310	-149.84085	1444.19714	-155.79160	-26.57998	1287.40906	-279.20349	-151.88799	1534.38477	-365.65649	103.60959	1206.04199	-549.87354	-100.29033	1194.76929	-31.35174	129.13185	976.94983	-459.68558	97.86446	1054.39355	51.55752	14.13034	912.14655	-376.21893	-219.76323	944.29504	-217.83876	-200.50023	1009.05237	-524.93140	18.42363	490.36362	-378.03424	-340.25101	511.38693	-234.43185	-41.62487	83.94925	-383.53598	-381.65546	106.00585	-253.88548	
313	3.120	69.73168	1409.99268	-101.15842				126.63942	1560.08350	-241.48814	-37.65064	1517.95874	-81.58302	79.63690	1493.18286	-451.59943	-148.87546	1444.62610	-152.01840	-26.63681	1287.11414	-277.96762	-152.30420	1534.57422	-362.72708	101.29908	1207.03467	-549.03760	-100.46635	1194.80627	-28.88583	127.79288	977.24420	-459.01224	97.71254	1054.48938	54.59349	19.10897	914.25848	-372.73267	-219.69576	944.26080	-215.85844	-202.20593	1009.54602	-522.54980	18.98081	490.48358	-379.14008	-341.23535	511.06302	-234.06593	-41.66099	83.95134	-383.52502	-380.70178	105.84607	-250.78320	
314	3.130	69.89661	1410.70837	-99.54237				126.26257	1560.01331	-239.74341	-37.04239	1517.37219	-79.71682	78.24886	1493.86475	-450.79205	-150.33467	1443.71375	-151.83276	-27.13491	1287.40881	-274.98770	-153.36877	1535.03455	-360.13351	100.13618	1207.38538	-548.14404	-100.24258	1194.50610	-25.76718	126.81573	978.07465	-456.89517	97.05795	1054.05273	57.62786	12.97050	912.56036	-374.20459	-219.49619	944.07941	-213.82576	-203.94397	1010.05042	-520.64325	18.96150	490.55066	-379.64584	-341.35315	510.43652	-233.13013	-41.54573	83.76053	-383.46906	-380.19702	106.44286	-248.43518	
315	3.140	70.44038	1409.61438	-97.87180				125.84913	1559.82080	-238.35188	-37.47861	1517.37854	-77.17393	76.91299	1494.38025	-449.08731	-150.99686	1442.96118	-147.99495	-28.25675	1287.14917	-274.54050	-154.06062	1535.06287	-356.97610	97.46529	1207.70752	-546.61523	-100.48753	1194.29736	-23.15693	125.84547	979.20197	-456.18530	96.80769	1054.10095	61.19874	11.80480	912.92865	-374.08661	-219.89285	943.27539	-212.44257	-205.60706	1010.89484	-518.54803	19.10706	490.75320	-380.17786	-342.67004	509.55090	-233.05466	-41.94115	84.34013	-383.64407	-379.64542	106.77826	-247.64583	
316	3.150	69.95444	1409.80273	-95.79298				125.47791	1560.00928	-235.86301	-36.89231	1517.18542	-75.36641	75.20818	1494.25964	-447.13556	-150.41595	1443.37207	-145.60081	-29.01040	1286.98633	-272.34494	-155.47159	1535.45825	-354.57852	95.82696	1208.31738	-545.35651	-101.63000	1194.38831	-19.70031	123.22140	979.43817	-455.72540	95.86806	1054.55090	64.39456	11.92947	913.62280	-372.79617	-219.64813	943.34045	-210.70171	-207.45750	1011.61835	-515.44971	19.40399	491.23343	-381.09991	-343.51126	509.65396	-232.49808	-41.99885	84.32533	-383.63681	-379.07785	106.15298	-247.85764	
317	3.160	69.89177	1409.52649	-94.82742				125.13585	1559.99011	-234.44106	-36.64463	1516.57104	-72.67260	74.17233	1494.76709	-445.29587	-149.89494	1443.44324	-141.98560	-29.28164	1287.53149	-270.87183	-156.03120	1535.62512	-351.74017	93.55785	1208.88538	-544.70325	-102.43732	1194.82056	-16.93926	122.69079	980.10614	-453.72079	94.34776	1054.78674	68.27967	9.83453	913.82190	-371.77295	-218.90314	943.90051	-209.78119	-209.36638	1012.14160	-514.14734	19.51146	491.68719	-380.79108	-343.76129	509.51767	-232.15509	-42.02687	84.34574	-383.61768	-378.77954	105.83015	-249.89394	
318	3.170	70.26917	1409.63928	-92.31188				124.65110	1560.50964	-233.03979	-36.73180	1516.48474	-70.81167	72.36311	1495.39368	-443.46420	-150.30864	1444.23303	-140.17465	-29.61636	1288.20361	-268.93954	-157.01321	1535.95972	-348.96289	91.20243	1209.75854	-544.12909	-103.08603	1194.94031	-14.08659	120.85867	980.71271	-453.81918	93.43288	1055.00110	71.51300	8.88782	914.08429	-370.96402	-219.34827	943.42682	-208.45839	-211.47519	1012.52008	-511.79745	19.75632	492.56812	-380.65738	-343.44742	509.12924	-231.88503	-42.08741	84.72926	-383.79422	-378.65366	105.20966	-250.94641	
319	3.180	70.15035	1409.11914	-91.42407				124.06221	1560.19788	-230.71770	-36.88166	1516.35107	-68.13370	71.14464	1495.24170	-441.36179	-151.76595	1444.05115	-137.72868	-31.16371	1287.85547	-267.54736	-158.21465	1536.18091	-345.82825	89.65963	1210.29858	-543.47406	-104.55775	1195.06104	-11.66712	117.98003	981.25964	-453.20169	92.06670	1055.20581	75.53751	7.34899	914.75848	-370.28827	-219.53522	944.20740	-205.84174	-213.48109	1013.14362	-509.68832	19.86046	492.99896	-380.58423	-343.99576	509.11264	-231.25909	-42.15636	85.16634	-384.24969	-378.17664	104.36697	-251.85182	
320	3.190	69.57289	1409.23682	-89.44541				123.38277	1560.80872	-229.63834	-37.02333	1516.13245	-65.80169	69.28747	1496.03809	-440.30701	-151.20735	1444.60107	-135.30086	-31.98959	1288.17322	-265.18649	-159.46507	1536.25330	-343.44476	86.71610	1210.51648	-541.52246	-104.91010	1194.67126	-9.23377	117.36713	982.89728	-451.69751	90.03653	1055.59094	79.46387	5.97472	915.26807	-369.74136	-220.09392	943.96240	-204.68320	-214.92142	1013.86865	-506.26587	20.08473	493.72638	-380.43683	-343.66925	508.63025	-230.18974	-42.26451	85.14187	-384.23428	-377.80984	103.89585	-252.08368	
